<?xml version="1.0" encoding="UTF-8"?>
<svg id="Capa_1" data-name="Capa 1" xmlns="http://www.w3.org/2000/svg" viewBox="0 0 39 58">
  <defs>
    <style>
      .cls-1 {
        fill: #38454f;
      }

      .cls-2 {
        fill: #283238;
        stroke: #f3cc6d;
        stroke-linecap: round;
        stroke-miterlimit: 10;
        stroke-width: 2px;
      }

      .cls-3 {
        fill: #4bb8dd;
      }

      .cls-4 {
        fill: #afb6bb;
      }

      .cls-5 {
        fill: #fff;
        font-family: MyriadPro-Regular, 'Myriad Pro';
        font-size: 12px;
      }
    </style>
  </defs>
  <path class="cls-3" d="M29.03,8.31l.97,1.69H6l.97-1.69c.73-1.28,1.11-2.68,1.11-4.11h0C8.09,1.88,10.24,0,12.9,0h10.2c2.66,0,4.81,1.88,4.81,4.19h0c0,1.43,.38,2.84,1.11,4.11Z"/>
  <path class="cls-3" d="M6.97,49.69l-.97-1.69H30l-.97,1.69c-.73,1.28-1.11,2.69-1.11,4.11h0c0,2.32-2.15,4.19-4.81,4.19H12.9c-2.66,0-4.81-1.88-4.81-4.19h0c0-1.43-.38-2.83-1.11-4.11Z"/>
  <path class="cls-4" d="M36.52,40h-2.52v-8h2.52c.82,0,1.48,.66,1.48,1.48v5.04c0,.82-.66,1.48-1.48,1.48Z"/>
  <path class="cls-4" d="M37.52,27h-2.52v-8h2.52c.82,0,1.48,.66,1.48,1.48v5.04c0,.82-.66,1.48-1.48,1.48Z"/>
  <path class="cls-2" d="M30.71,48H5.29c-2.37,0-4.29-1.92-4.29-4.29V14.29c0-2.37,1.92-4.29,4.29-4.29H30.71c2.37,0,4.29,1.92,4.29,4.29v29.41c0,2.37-1.92,4.29-4.29,4.29Z"/>
  <g>
    <path class="cls-1" d="M6,20c.26,0,.51-.1,.71-.29l4-4c.39-.39,.39-1.02,0-1.41s-1.02-.39-1.41,0l-4,4c-.39,.39-.39,1.02,0,1.41,.19,.19,.45,.29,.71,.29Z"/>
    <path class="cls-1" d="M6,25c.26,0,.51-.1,.71-.29l2-2c.39-.39,.39-1.02,0-1.41s-1.02-.39-1.41,0l-2,2c-.39,.39-.39,1.02,0,1.41,.19,.19,.45,.29,.71,.29Z"/>
    <path class="cls-1" d="M9.29,19.29c-.18,.19-.29,.44-.29,.71s.11,.52,.29,.7c.19,.19,.44,.3,.71,.3s.52-.11,.71-.29c.18-.19,.29-.45,.29-.71s-.11-.52-.29-.71c-.38-.37-1.05-.37-1.42,0Z"/>
    <path class="cls-1" d="M11.29,18.71c.2,.19,.45,.29,.71,.29s.51-.1,.71-.29l3-3c.39-.39,.39-1.02,0-1.41s-1.02-.39-1.41,0l-3,3c-.39,.39-.39,1.02,0,1.41Z"/>
    <path class="cls-1" d="M14.29,19.29L5.29,28.29c-.39,.39-.39,1.02,0,1.41,.2,.2,.45,.29,.71,.29s.51-.1,.71-.29l9-9c.39-.39,.39-1.02,0-1.41s-1.02-.39-1.41,0Z"/>
    <path class="cls-1" d="M16.3,17.29c-.19,.18-.3,.44-.3,.71s.11,.52,.29,.71c.19,.18,.45,.29,.71,.29s.52-.11,.71-.29c.18-.19,.29-.45,.29-.71s-.11-.52-.29-.71c-.38-.37-1.05-.37-1.41,0Z"/>
    <path class="cls-1" d="M20.71,14.29c-.39-.39-1.02-.39-1.41,0l-1,1c-.39,.39-.39,1.02,0,1.41,.19,.19,.45,.29,.71,.29s.51-.1,.71-.29l1-1c.39-.39,.39-1.02,0-1.41Z"/>
  </g>
  <text class="cls-5" transform="translate(3.97 32.5)"><tspan x="0" y="0">00</tspan></text>
  <text class="cls-5" transform="translate(19.5 32.5)"><tspan x="0" y="0">00</tspan></text>
  <text class="cls-5" transform="translate(16.31 31.74)"><tspan x="0" y="0">:</tspan></text>
</svg>