<svg class="svg-icon" style="width: 1em; height: 1em;vertical-align: middle;fill: currentColor;overflow: hidden;" viewBox="0 0 1024 1024" version="1.1" xmlns="http://www.w3.org/2000/svg"><path d="M561.944 112.34v199.8h-99.8v-199.8z" fill="#ECEFF1" /><path d="M412.2 212.4H612v99.8h-199.8z" fill="#465A63" /><path d="M562 212.4h50v62.4h-50z" fill="#3D4F57" /><path d="M412 212.4h50v62.4h-50z" fill="#5A7480" /><path d="M779.434 259.336l35.354 35.354-105.924 105.924-35.354-35.354z" fill="#ECEFF1" /><path d="M850.112 294.616l-53.034 53.032-70.568-70.568 53.032-53.034z" fill="#FDC93C" /><path d="M726.338 276.966l26.444-26.446 70.57 70.57-26.446 26.444z" fill="#FDAD2B" /><path d="M512 612m-349.6 0a349.6 349.6 0 1 0 699.2 0 349.6 349.6 0 1 0-699.2 0Z" fill="#465A63" /><path d="M512 262.2c-12.6 0-25.2 0.6-37.4 2 175.4 18.6 312.2 167.2 312.2 347.6 0 180.4-136.6 329-312.2 347.6 12.4 1.4 24.8 2 37.4 2 193 0 349.6-156.6 349.6-349.6 0-193-156.6-349.6-349.6-349.6z" fill="#3D4F57" /><path d="M362.2 62.4H662v99.8H362.2z" fill="#FDC93C" /><path d="M612 62.4h50v99.8h-50z" fill="#FDAD2B" /><path d="M512 612m-274.8 0a274.8 274.8 0 1 0 549.6 0 274.8 274.8 0 1 0-549.6 0Z" fill="#ECEFF1" /><path d="M512 337.2c-10.6 0-21 0.6-31.2 1.8 137 15.6 243.6 131.8 243.6 273s-106.6 257.6-243.6 273c10.2 1.2 20.6 1.8 31.2 1.8 151.8 0 274.8-123 274.8-274.8S663.8 337.2 512 337.2z" fill="#D0D5D9" /><path d="M426.6 87.4h-25c-6.8 0-12.4 5.6-12.4 12.4 0 6.8 5.6 12.4 12.4 12.4h25c6.8 0 12.4-5.6 12.4-12.4 0-6.8-5.6-12.4-12.4-12.4zM548.2 87.4H464c-6.8 0-12.4 5.6-12.4 12.4 0 6.8 5.6 12.4 12.4 12.4h84.2c6.8 0 12.4-5.6 12.4-12.4 0.2-6.8-5.4-12.4-12.4-12.4z" fill="#ECEFF1" /><path d="M769.4 357.6l10-10 8.8 8.8c2.4 2.4 5.6 3.6 8.8 3.6s6.4-1.4 8.8-3.6l53-53c4.8-4.8 4.8-12.8 0-17.6l-70.6-70.6c-2.4-2.4-5.6-3.6-8.8-3.6s-6.4 1.4-8.8 3.6l-53 53c-4.8 4.8-4.8 12.8 0 17.6l8.8 8.8-15.2 15.2c-26.8-17.6-55.8-31.8-86.8-42v-55.4c0-6.8-5.6-12.4-12.4-12.4h-37.4V174.8H662c6.8 0 12.4-5.6 12.4-12.4v-100c0-6.8-5.6-12.4-12.4-12.4H362.2c-6.8 0-12.4 5.6-12.4 12.4v99.8c0 6.8 5.6 12.4 12.4 12.4h87.4v25h-37.4c-6.8 0-12.4 5.6-12.4 12.4v55.4C254.8 315 150 451.4 150 612c0 199.6 162.4 362 362 362s362-162.4 362-362c0-99.2-40-189-104.6-254.4z m10-116l53 53-35.2 35.4-53-53 35.2-35.4zM744 312.2l17.6 17.6-10.4 10.4c-6.2-5.6-12.8-10.8-19.4-16l12.2-12zM649.4 75v56.2H374.6V75h274.8zM374.6 143.6h274.8V150H374.6v-6.4z m100 31.2h6.2v12.4c0 3.4 2.8 6.2 6.2 6.2s6.2-2.8 6.2-6.2v-12.4h12.4v12.4c0 3.4 2.8 6.2 6.2 6.2 3.4 0 6.2-2.8 6.2-6.2v-12.4h12.4v12.4c0 3.4 2.8 6.2 6.2 6.2s6.2-2.8 6.2-6.2v-12.4h6.2v25H474V174.8z m-50 50h174.8v35.6c-28-7-57.2-10.6-87.4-10.6-30.2 0-59.4 3.8-87.4 10.6v-35.6zM512 949c-185.8 0-337.2-151.2-337.2-337.2S326.2 274.8 512 274.8 849.2 426 849.2 612 697.8 949 512 949z" fill="#17171D" /><path d="M512 324.6c-158.4 0-287.2 128.8-287.2 287.2S353.6 899.2 512 899.2c158.4 0 287.2-128.8 287.2-287.2S670.4 324.6 512 324.6z m0 549.6c-144.6 0-262.2-117.6-262.2-262.2S367.4 349.6 512 349.6 774.2 467.2 774.2 612 656.6 874.2 512 874.2z" fill="#17171D" /><path d="M512 449.6c6.8 0 12.4-5.6 12.4-12.4v-49.8c0-6.8-5.6-12.4-12.4-12.4-6.8 0-12.4 5.6-12.4 12.4v49.8c0 6.8 5.6 12.4 12.4 12.4zM337.2 599.4h-49.8c-6.8 0-12.4 5.6-12.4 12.4 0 6.8 5.6 12.4 12.4 12.4h49.8c6.8 0 12.4-5.6 12.4-12.4 0.2-6.8-5.4-12.4-12.4-12.4zM512 774.2c-6.8 0-12.4 5.6-12.4 12.4v49.8c0 6.8 5.6 12.4 12.4 12.4 6.8 0 12.4-5.6 12.4-12.4v-49.8c0-6.8-5.6-12.4-12.4-12.4zM736.6 599.4h-49.8c-6.8 0-12.4 5.6-12.4 12.4 0 6.8 5.6 12.4 12.4 12.4h49.8c6.8 0 12.4-5.6 12.4-12.4 0.2-6.8-5.4-12.4-12.4-12.4zM524.4 606.8v-119.6c0-6.8-5.6-12.4-12.4-12.4-6.8 0-12.4 5.6-12.4 12.4V612c0 3.4 1.4 6.4 3.6 8.8l50 50c2.4 2.4 5.6 3.6 8.8 3.6 3.2 0 6.4-1.2 8.8-3.6 4.8-4.8 4.8-12.8 0-17.6l-46.4-46.4z" fill="#17171D" /></svg>