<?xml version="1.0" encoding="UTF-8"?>
<svg id="Layer_1" data-name="Layer 1" xmlns="http://www.w3.org/2000/svg" xmlns:xlink="http://www.w3.org/1999/xlink" viewBox="0 0 13.74 15.87">
  <defs>
    <style>
      .cls-1 {
        fill: #fff;
        stroke: #231f20;
        stroke-width: .75px;
      }

      .cls-1, .cls-2 {
        stroke-miterlimit: 10;
      }

      .cls-3 {
        fill: #c82127;
      }

      .cls-4 {
        fill: #231f20;
      }

      .cls-2 {
        fill: url(#radial-gradient);
        stroke: #00aeef;
      }
    </style>
    <radialGradient id="radial-gradient" cx="5.38" cy="7.94" fx="5.38" fy="7.94" r="5.02" gradientUnits="userSpaceOnUse">
      <stop offset="0" stop-color="#fff"/>
      <stop offset=".12" stop-color="#fcfdfa"/>
      <stop offset=".27" stop-color="#f3f9eb"/>
      <stop offset=".43" stop-color="#e5f2d3"/>
      <stop offset=".59" stop-color="#d1e8b2"/>
      <stop offset=".76" stop-color="#b7db87"/>
      <stop offset=".94" stop-color="#99cc53"/>
      <stop offset="1" stop-color="#8dc63f"/>
    </radialGradient>
  </defs>
  <ellipse class="cls-2" cx="5.38" cy="7.94" rx="4.88" ry="5.16"/>
  <rect class="cls-3" x="9.54" y="3.29" width="1.39" height=".54" rx=".27" ry=".27"/>
  <rect class="cls-3" x="10.07" y="2.79" width="1.72" height=".54" rx=".27" ry=".27" transform="translate(3.05 11.23) rotate(-61.67)"/>
  <rect class="cls-3" x="10.14" y="3.37" width="2.89" height=".54" rx=".27" ry=".27" transform="translate(11.53 15.77) rotate(-107.18)"/>
  <rect class="cls-3" x="11.3" y="3.83" width="2.05" height=".54" rx=".27" ry=".27" transform="translate(2.61 12.72) rotate(-60)"/>
  <rect class="cls-3" x="12.44" y="3.17" width="1.3" height=".54" rx=".27" ry=".27" transform="translate(26.17 6.88) rotate(180)"/>
  <g>
    <ellipse class="cls-4" cx="6.48" cy="5.4" rx=".93" ry=".88" transform="translate(-.71 9.8) rotate(-71.31)"/>
    <path class="cls-4" d="M6.52,7.31l-2.13-.48c-.18-.04-.29-.22-.24-.41h0c.04-.19,.22-.31,.4-.27l2.13,.48c.18,.04,.29,.22,.24,.41h0c-.04,.19-.22,.31-.4,.27Z"/>
    <path class="cls-4" d="M4.67,6.75l-1.47,1.42c-.14,.13-.35,.13-.47-.01h0c-.12-.14-.11-.36,.03-.49l1.47-1.42c.14-.13,.35-.13,.47,.01h0c.12,.14,.11,.36-.03,.49Z"/>
    <path class="cls-4" d="M7.64,8.75l-1.27-1.52c-.12-.14-.1-.36,.04-.49h0c.14-.13,.35-.12,.47,.02l1.27,1.52c.12,.14,.1,.36-.04,.49h0c-.14,.13-.35,.12-.47-.02Z"/>
    <path class="cls-4" d="M7.65,8.27l.97-1.03c.13-.14,.34-.14,.47-.01h0c.13,.13,.13,.35,0,.49l-.97,1.03c-.13,.14-.34,.14-.47,.01h0c-.13-.13-.13-.35,0-.49Z"/>
    <path class="cls-4" d="M6.44,7.23l-1.17,2.31c-.09,.17-.29,.24-.45,.16l-.55-.29c-.16-.09-.22-.29-.13-.47l1.17-2.31c.09-.17,.29-.24,.45-.16l.55,.29c.16,.09,.22,.29,.13,.47Z"/>
    <path class="cls-4" d="M5.26,10.26l-.48-.57c-.12-.14-.1-.36,.04-.49h0c.14-.13,.35-.12,.47,.02l.48,.57c.12,.14,.1,.36-.04,.49h0c-.14,.13-.35,.12-.47-.02Z"/>
    <path class="cls-4" d="M5.22,11.65v-1.59c-.01-.19,.13-.35,.32-.36h0c.18,0,.33,.14,.33,.33v1.59c.01,.19-.13,.35-.32,.36h0c-.18,0-.33-.14-.33-.33Z"/>
    <path class="cls-4" d="M3.58,9.05l.71-.22c.18-.05,.36,.05,.41,.23h0c.05,.18-.06,.38-.24,.43l-.71,.22c-.18,.05-.36-.05-.41-.23h0c-.05-.18,.06-.38,.24-.43Z"/>
    <path class="cls-4" d="M2.4,8.45l1.37,.63c.17,.08,.24,.28,.16,.46h0c-.08,.18-.28,.26-.44,.18l-1.37-.63c-.17-.08-.24-.28-.16-.46h0c.08-.18,.28-.26,.44-.18Z"/>
  </g>
  <path class="cls-1" d="M5.38,1.46c.91,0,1.77,.24,2.53,.65h1.38c-.17-.58-.33-1.15-.5-1.73H2.02l-.55,1.73h1.38c.76-.41,1.62-.65,2.53-.65Z"/>
  <path class="cls-1" d="M5.54,14.42c-.91,0-1.77-.24-2.53-.65H1.63c.17,.58,.33,1.15,.5,1.73h6.78l.55-1.73h-1.38c-.76,.41-1.62,.65-2.53,.65Z"/>
</svg>